<svg width="40" height="40" viewBox="0 0 40 40" fill="none" xmlns="http://www.w3.org/2000/svg">
<path d="M20.6 3H20.5L7 4.4V29.1L20.5 37.1L33.9 29.1V4.4L20.6 3ZM32 15.1L20.5 8.3V8.2H20.4L20.3 8.1V8.2L8.9 15.1V6.1L20.4 4.9L32 6.1V15.1ZM20.4 9.8L31.9 16.5L27.4 19.1L20.3 14.9V16.3L26.2 19.8L25.3 20.3L20.3 17.3V18.7L24.1 21L23.3 21.5L20.3 19.7V21.1L22.2 22.2L20.4 23.3L9 16.6L20.4 9.8ZM8.9 18.1L20.3 24.9V25.9L12.4 21.2V22.6L20.4 27.4V28.5L12.4 23.8V25.2L20.4 30L28.5 25.1V19.9L31.9 17.9V27.9L20.4 34.8L8.9 28V18.1Z" fill="black"/>
</svg>
